<svg width="20" height="20" viewBox="0 0 20 20" fill="none" xmlns="http://www.w3.org/2000/svg">
<path d="M8 19.8C3.436 18.873 0 14.838 0 10C0 4.477 4.477 0 10 0C15.523 0 20 4.477 20 10C20 14.838 16.564 18.873 12 19.8V17.748C13.8853 17.2612 15.5284 16.1035 16.6212 14.492C17.714 12.8804 18.1816 10.9256 17.9362 8.994C17.6909 7.06237 16.7495 5.28653 15.2885 3.99936C13.8275 2.71218 11.9471 2.00203 10 2.00203C8.05285 2.00203 6.17255 2.71218 4.71153 3.99936C3.25052 5.28653 2.30911 7.06237 2.06376 8.994C1.81841 10.9256 2.28597 12.8804 3.3788 14.492C4.47162 16.1035 6.11468 17.2612 8 17.748V19.8ZM8 15.659C6.66557 15.1872 5.54089 14.2589 4.82474 13.038C4.10858 11.8172 3.84707 10.3825 4.08641 8.98753C4.32575 7.59254 5.05054 6.32707 6.13268 5.41479C7.21482 4.50251 8.58463 4.00215 10 4.00215C11.4154 4.00215 12.7852 4.50251 13.8673 5.41479C14.9495 6.32707 15.6742 7.59254 15.9136 8.98753C16.1529 10.3825 15.8914 11.8172 15.1753 13.038C14.4591 14.2589 13.3344 15.1872 12 15.659V13.465C12.7626 13.0247 13.3586 12.3451 13.6955 11.5316C14.0325 10.7181 14.0916 9.81616 13.8637 8.96562C13.6358 8.11509 13.1336 7.36352 12.435 6.82749C11.7365 6.29145 10.8805 6.0009 10 6.0009C9.11946 6.0009 8.26353 6.29145 7.56495 6.82749C6.86638 7.36352 6.3642 8.11509 6.1363 8.96562C5.9084 9.81616 5.96752 10.7181 6.30448 11.5316C6.64145 12.3451 7.23743 13.0247 8 13.465V15.659V15.659ZM11 11.732V20H9V11.732C8.61872 11.5119 8.32072 11.1721 8.15224 10.7653C7.98376 10.3586 7.9542 9.90758 8.06815 9.48231C8.1821 9.05704 8.43319 8.68126 8.78248 8.41324C9.13177 8.14522 9.55973 7.99995 10 7.99995C10.4403 7.99995 10.8682 8.14522 11.2175 8.41324C11.5668 8.68126 11.8179 9.05704 11.9319 9.48231C12.0458 9.90758 12.0162 10.3586 11.8478 10.7653C11.6793 11.1721 11.3813 11.5119 11 11.732V11.732Z" fill="#0F172A"/>
</svg>
